<svg xmlns="http://www.w3.org/2000/svg" version="1.1" xmlns:xlink="http://www.w3.org/1999/xlink" xmlns:svgjs="http://svgjs.com/svgjs" width="1440" height="560" preserveAspectRatio="none" viewBox="0 0 1440 560"><g mask="url(&quot;#SvgjsMask1000&quot;)" fill="none"><rect width="1440" height="560" x="0" y="0" fill="#0e2a47"></rect><path d="M69.58 395.59L93.39 395.59L93.39 417.12L69.58 417.12z" fill="#e73635"></path><path d="M143.31 387.55a54.05 54.05 0 1 0-64.76-86.55z" stroke="#037b0b"></path><path d="M1264.69 300.05L1291.87 300.05L1291.87 327.23L1264.69 327.23z" fill="#037b0b"></path><path d="M946.08 241.66 a53.29 53.29 0 1 0 106.58 0 a53.29 53.29 0 1 0 -106.58 0z" stroke="#037b0b"></path><path d="M152.42 254.83L159.83 254.83L159.83 284.24L152.42 284.24z" fill="#d3b714"></path><path d="M1285.7 191.48 a19.45 19.45 0 1 0 38.9 0 a19.45 19.45 0 1 0 -38.9 0z" stroke="#d3b714"></path><path d="M67.78 360.15a38.44 38.44 0 1 0-66.35-38.84z" stroke="#037b0b"></path><path d="M136.41 264.99L150.59 264.99L150.59 302.94L136.41 302.94z" fill="#037b0b"></path><path d="M343.74 486.27 a1 1 0 1 0 2 0 a1 1 0 1 0 -2 0z" fill="#d3b714"></path><path d="M1380.68 259.88L1411.91 259.88L1411.91 291.11L1380.68 291.11z" stroke="#d3b714"></path><path d="M370.08 176.58 a41.01 41.01 0 1 0 82.02 0 a41.01 41.01 0 1 0 -82.02 0z" fill="#d3b714"></path><path d="M207.66 237.47L262.13 237.47L262.13 291.94L207.66 291.94z" fill="#d3b714"></path><path d="M971.37 387.71L1023.86 387.71L1023.86 396.43L971.37 396.43z" stroke="#d3b714"></path><path d="M1338.41 535.32 a41.57 41.57 0 1 0 83.14 0 a41.57 41.57 0 1 0 -83.14 0z" fill="#037b0b"></path><path d="M305.29 379.85L340.39 379.85L340.39 406.24L305.29 406.24z" stroke="#d3b714"></path><path d="M48.62 5.51a34.99 34.99 0 1 0 67.78 17.44z" fill="#e73635"></path><path d="M1019.5 37.18L1034.87 37.18L1034.87 84.15L1019.5 84.15z" fill="#037b0b"></path><path d="M1353.17 525.54L1364.39 525.54L1364.39 536.76L1353.17 536.76z" stroke="#037b0b"></path><path d="M79.7 200.81L83.45 200.81L83.45 204.56L79.7 204.56z" stroke="#d3b714"></path><path d="M1330.08 28.87L1378.42 28.87L1378.42 77.21L1330.08 77.21z" fill="#037b0b"></path><path d="M978.54 260.83L1011.36 260.83L1011.36 313.6L978.54 313.6z" fill="#e73635"></path><path d="M350.87 556.11a54.16 54.16 0 1 0 81.85-70.95z" stroke="#d3b714"></path><path d="M905.87 151.8L946.38 151.8L946.38 181.31L905.87 181.31z" stroke="#d3b714"></path><path d="M195.24 137.3L211.82 137.3L211.82 183.6L195.24 183.6z" stroke="#037b0b"></path><path d="M1399.73 477.94a5.44 5.44 0 1 0 0.43-10.87z" stroke="#037b0b"></path><path d="M1040.77 436.22 a33.55 33.55 0 1 0 67.1 0 a33.55 33.55 0 1 0 -67.1 0z" stroke="#d3b714"></path><path d="M1006.35 69.16L1018.68 69.16L1018.68 81.49L1006.35 81.49z" stroke="#037b0b"></path><path d="M488.48 380.67L524.23 380.67L524.23 416.42L488.48 416.42z" fill="#d3b714"></path><path d="M1261.71 342.45a38.4 38.4 0 1 0 76.8 0.86z" stroke="#037b0b"></path><path d="M731.99 229.94 a40.45 40.45 0 1 0 80.9 0 a40.45 40.45 0 1 0 -80.9 0z" stroke="#d3b714"></path><path d="M229.46 66.04a40.87 40.87 0 1 0-34.2-74.24z" fill="#e73635"></path><path d="M-5.96 2.35 a51.8 51.8 0 1 0 103.6 0 a51.8 51.8 0 1 0 -103.6 0z" stroke="#e73635"></path><path d="M361.84 553.47L402.59 553.47L402.59 584.36L361.84 584.36z" fill="#d3b714"></path></g><defs><mask id="SvgjsMask1000"><rect width="1440" height="560" fill="#ffffff"></rect></mask></defs></svg>