<svg xmlns="http://www.w3.org/2000/svg" version="1.1" xmlns:xlink="http://www.w3.org/1999/xlink" xmlns:svgjs="http://svgjs.com/svgjs" width="1440" height="560" preserveAspectRatio="none" viewBox="0 0 1440 560"><g mask="url(&quot;#SvgjsMask1000&quot;)" fill="none"><rect width="1440" height="560" x="0" y="0" fill="#0e2a47"></rect><path d="M96.99 646.73C248.44 620.76 316.5 252.05 564.1 247.27 811.71 242.49 797.66 317.27 1031.22 317.27 1264.77 317.27 1380.25 247.46 1498.33 247.27" stroke="rgba(51,121,194,0.58)" stroke-width="2"></path><path d="M171.35 588.06C289.48 582.58 381 380.52 596.22 380.07 811.44 379.62 808.66 450.07 1021.09 450.07 1233.53 450.07 1338.31 380.3 1445.96 380.07" stroke="rgba(51,121,194,0.58)" stroke-width="2"></path><path d="M697.07 669.07C794 636.23 756.72 352.84 955.66 351.72 1154.61 350.6 1338.91 490.49 1472.85 491.72" stroke="rgba(51,121,194,0.58)" stroke-width="2"></path><path d="M700.14 611.14C772.96 610.58 754.33 545.63 982.46 539.33 1210.59 533.03 1390.9 277.27 1547.09 270.53" stroke="rgba(51,121,194,0.58)" stroke-width="2"></path><path d="M617.11 641.85C776.29 596.96 822.44 157.57 1060.96 151.3 1299.49 145.03 1388.48 289.65 1504.82 291.3" stroke="rgba(51,121,194,0.58)" stroke-width="2"></path></g><defs><mask id="SvgjsMask1000"><rect width="1440" height="560" fill="#ffffff"></rect></mask></defs></svg>