<?xml version="1.0" encoding="UTF-8" ?>
<!DOCTYPE svg PUBLIC "-//W3C//DTD SVG 1.1//EN" "http://www.w3.org/Graphics/SVG/1.1/DTD/svg11.dtd">
<svg width="807pt" height="414pt" viewBox="0 0 807 414" version="1.1" xmlns="http://www.w3.org/2000/svg">
<g id="#f1ec40ff">
<path fill="#f1ec40" opacity="1.00" d=" M 130.06 17.10 C 130.96 16.67 132.40 15.40 133.08 16.87 C 155.48 47.92 185.90 73.26 220.74 89.21 C 233.84 95.26 247.76 99.56 261.99 101.99 C 263.99 102.83 265.98 101.18 267.83 102.43 C 290.85 105.63 316.25 99.84 332.98 82.98 C 337.78 78.62 340.43 72.52 342.65 66.55 C 347.41 52.62 350.08 38.09 352.85 23.66 C 353.23 20.32 356.62 17.67 359.95 18.12 C 362.07 18.16 363.88 19.38 365.65 20.40 C 377.13 27.38 390.53 31.53 404.04 30.91 C 416.39 30.55 428.37 26.27 438.80 19.79 C 441.55 17.91 445.70 17.18 448.33 19.67 C 450.07 20.89 450.45 23.08 450.89 25.01 C 453.54 38.61 456.24 52.26 460.57 65.46 C 462.79 71.94 465.37 78.69 470.75 83.25 C 483.63 96.22 502.05 102.06 520.03 102.44 C 523.05 102.91 525.99 101.46 528.99 102.19 C 534.06 102.37 539.10 101.51 544.08 100.67 C 545.19 100.31 546.06 100.62 546.68 101.58 C 546.72 101.22 546.79 100.51 546.82 100.15 C 579.92 93.51 610.07 76.32 635.67 54.71 C 641.57 49.61 647.60 44.64 652.76 38.76 C 659.57 31.75 665.15 23.69 671.18 16.03 C 701.49 33.35 729.63 54.98 752.33 81.64 C 776.92 109.89 794.32 145.16 798.17 182.67 C 802.40 220.33 791.89 258.85 771.50 290.55 C 751.85 321.73 724.27 347.26 693.95 367.89 C 679.89 377.37 665.16 385.88 649.94 393.34 L 649.15 393.09 C 645.70 376.72 639.95 360.58 629.94 347.03 C 620.00 333.31 605.19 322.44 588.24 319.64 C 575.35 317.84 561.84 320.77 550.97 327.96 C 539.45 334.98 531.00 345.85 523.92 357.07 L 523.22 356.88 C 517.95 351.74 512.90 346.21 506.54 342.38 C 501.00 339.15 495.55 335.56 489.34 333.76 C 482.29 331.50 474.77 330.93 467.43 331.58 C 455.33 333.47 444.69 340.61 436.54 349.52 C 424.91 362.19 417.60 378.14 412.37 394.36 C 410.30 400.64 401.04 402.07 396.91 397.12 C 394.62 393.99 393.85 390.09 392.47 386.54 C 387.18 372.08 380.02 357.96 369.14 346.87 C 362.35 339.72 353.46 334.60 343.93 332.13 C 335.06 330.56 325.68 330.77 317.19 334.04 C 304.66 338.69 294.14 347.42 285.08 357.07 C 283.85 358.34 282.74 359.78 281.23 360.74 C 273.36 345.77 262.00 331.83 246.37 324.61 C 232.65 317.54 215.71 317.27 201.74 323.80 C 186.13 330.84 173.96 344.03 166.07 359.03 C 160.08 369.74 156.69 381.63 153.99 393.52 C 110.72 372.44 70.77 343.06 41.49 304.53 C 31.08 290.30 22.02 274.99 15.66 258.51 C 5.61 233.07 2.08 205.05 5.56 177.92 C 9.76 146.21 23.86 116.42 43.16 91.14 C 66.57 60.73 97.05 36.38 130.06 17.10 M 141.43 167.67 C 135.84 168.79 129.98 170.74 126.18 175.22 C 122.91 178.96 122.03 184.13 121.99 188.95 C 122.00 201.65 122.01 214.35 121.99 227.04 C 122.02 232.11 123.09 237.54 126.55 241.43 C 133.60 248.04 143.81 249.08 153.02 249.46 C 163.38 249.57 174.59 249.42 183.55 243.51 C 188.81 240.33 190.46 233.71 190.71 227.96 C 190.81 215.29 190.69 202.63 190.76 189.96 C 190.78 184.66 189.90 178.89 186.13 174.88 C 181.29 169.59 173.89 167.92 167.06 167.01 C 158.54 166.25 149.87 166.15 141.43 167.67 M 527.38 167.55 C 520.62 168.77 513.33 171.44 509.77 177.75 C 505.84 184.97 508.00 193.43 506.91 201.21 C 507.46 208.04 507.45 214.93 506.92 221.75 C 507.51 228.57 506.88 236.55 512.31 241.69 C 519.46 248.24 529.76 249.17 539.01 249.48 C 549.04 249.50 559.95 249.41 568.62 243.69 C 573.86 240.37 575.91 233.99 575.99 228.07 C 576.01 214.70 576.00 201.32 575.99 187.94 C 575.97 182.48 574.18 176.71 569.78 173.19 C 563.63 168.33 555.54 167.15 547.95 166.64 C 541.09 166.39 534.15 166.33 527.38 167.55 M 609.36 167.51 C 603.66 168.51 597.75 170.36 593.65 174.66 C 590.06 178.45 588.93 183.88 588.99 188.96 C 589.02 201.99 588.98 215.03 589.01 228.07 C 589.02 233.75 590.95 239.87 595.78 243.26 C 603.32 248.69 613.03 249.30 622.00 249.50 C 631.50 249.49 641.67 249.10 649.95 243.89 C 655.32 240.56 657.62 234.11 657.68 228.03 C 657.83 215.68 657.68 203.32 657.76 190.96 C 657.78 185.13 657.03 178.64 652.63 174.36 C 647.44 169.31 639.99 167.67 633.03 166.90 C 625.15 166.31 617.17 166.18 609.36 167.51 M 65.44 170.42 C 58.03 172.81 53.36 180.32 53.11 187.90 C 52.84 200.26 53.09 212.64 52.99 225.01 C 52.89 231.07 54.47 237.68 59.17 241.84 C 64.00 246.19 70.74 247.47 77.04 247.72 C 86.03 247.80 95.03 247.68 104.03 247.77 C 106.10 247.75 108.23 247.90 110.24 247.27 C 112.06 243.10 111.00 238.40 111.28 233.99 C 111.03 231.64 111.94 227.73 108.86 226.98 C 100.32 226.29 91.72 227.13 83.18 226.59 C 80.70 226.48 78.06 224.72 78.29 221.97 C 78.26 212.65 78.19 203.33 78.32 194.01 C 78.20 191.32 81.03 189.71 83.40 189.57 C 91.88 189.15 100.40 189.90 108.85 189.24 C 111.71 188.70 111.08 185.14 111.28 183.01 C 111.07 178.49 111.84 173.80 110.61 169.40 C 107.30 167.01 102.81 168.34 99.00 167.99 C 87.84 168.46 76.19 166.66 65.44 170.42 M 205.74 168.75 C 204.90 170.36 204.74 172.18 204.73 173.97 C 204.73 196.31 204.76 218.66 204.72 241.00 C 204.73 243.12 204.71 245.34 205.76 247.26 C 209.42 248.25 213.26 247.56 217.00 247.74 C 220.74 247.56 224.59 248.25 228.25 247.26 C 229.39 245.37 229.27 243.12 229.29 241.01 C 229.24 229.28 229.27 217.56 229.25 205.84 C 232.72 209.61 233.87 214.93 237.18 218.83 C 239.62 221.14 243.31 220.28 246.32 221.09 C 253.52 218.99 254.43 210.24 258.64 205.04 C 258.40 217.70 258.57 230.37 258.53 243.03 C 258.49 244.82 258.85 247.63 261.19 247.66 C 267.71 247.82 274.26 247.81 280.79 247.66 C 283.25 247.74 283.55 244.85 283.49 243.02 C 283.47 219.67 283.47 196.33 283.49 172.98 C 283.39 171.55 283.53 169.81 282.31 168.78 C 280.03 167.74 277.43 168.05 275.00 167.98 C 270.36 168.10 265.71 167.77 261.08 168.18 C 259.04 168.24 257.46 169.77 256.52 171.46 C 252.95 177.65 249.83 184.10 246.16 190.24 C 245.41 191.84 242.65 191.61 242.00 190.00 C 238.27 183.68 235.06 177.04 231.22 170.78 C 229.44 167.37 225.19 168.08 222.00 167.98 C 216.59 168.26 211.03 167.33 205.74 168.75 M 297.34 170.30 C 296.66 174.85 297.09 179.49 297.00 184.08 C 297.13 185.88 296.90 188.58 299.16 189.14 C 303.31 189.91 307.56 189.29 311.75 189.39 C 312.24 201.82 312.04 214.31 311.85 226.75 C 307.16 227.17 302.16 225.78 297.71 227.70 C 296.35 232.35 297.21 237.29 296.99 242.07 C 296.95 244.22 297.13 247.92 300.14 247.68 C 315.10 247.85 330.06 247.66 345.03 247.77 C 347.10 247.74 349.24 247.94 351.24 247.24 C 353.18 243.13 351.92 238.38 352.28 233.99 C 352.06 231.64 352.93 227.72 349.85 226.97 C 345.94 226.41 341.97 226.94 338.04 226.72 C 337.16 225.33 337.63 223.57 337.49 222.02 C 337.65 211.37 337.33 200.70 337.64 190.05 C 341.80 188.22 347.24 190.88 351.47 188.52 C 353.06 183.22 352.04 177.47 352.18 171.99 C 352.55 169.05 349.53 167.79 347.09 168.04 C 332.37 167.95 317.64 168.01 302.92 168.01 C 300.98 168.17 297.98 167.89 297.34 170.30 M 368.20 177.15 C 364.74 182.03 364.62 188.25 364.51 194.01 C 364.54 203.67 364.50 213.32 364.53 222.98 C 364.62 228.65 364.98 234.77 368.60 239.44 C 373.28 245.71 381.62 247.51 389.03 247.72 C 399.30 247.73 409.58 247.82 419.86 247.68 C 422.89 247.93 422.95 244.20 422.99 242.07 C 422.86 237.30 423.54 232.38 422.27 227.72 C 420.98 226.99 419.51 226.72 418.05 226.74 C 410.68 226.66 403.31 226.83 395.94 226.71 C 393.49 226.77 390.40 225.67 390.07 222.89 C 389.37 217.63 389.88 212.29 389.74 207.00 C 389.87 202.39 389.36 197.73 390.15 193.17 C 390.59 190.46 393.61 189.54 395.99 189.56 C 403.59 189.41 411.19 189.63 418.80 189.51 C 420.44 189.54 422.60 188.78 422.71 186.85 C 423.25 182.57 422.96 178.23 422.99 173.93 C 422.85 171.98 423.08 169.02 420.66 168.40 C 417.48 167.75 414.21 168.04 410.99 167.99 C 402.40 168.11 393.77 167.68 385.21 168.52 C 378.81 169.24 371.93 171.55 368.20 177.15 M 435.74 168.73 C 434.11 172.60 434.92 176.92 434.71 181.00 C 435.05 183.64 433.79 188.20 437.15 189.18 C 445.35 189.86 453.64 189.35 461.87 189.39 C 461.35 191.43 459.69 192.86 458.45 194.47 C 450.60 203.96 442.74 213.45 434.97 223.01 C 432.34 226.04 432.82 230.29 432.72 234.01 C 432.82 237.95 432.42 241.95 433.16 245.85 C 433.44 247.57 435.62 247.72 437.01 247.74 C 455.02 247.75 473.02 247.72 491.03 247.76 C 492.73 247.77 495.15 247.76 495.54 245.61 C 495.97 240.49 495.76 235.30 495.65 230.16 C 495.73 228.10 494.10 226.55 492.04 226.80 C 483.10 226.66 474.14 226.74 465.19 226.80 C 474.00 216.07 483.00 205.50 491.68 194.68 C 494.33 191.76 493.69 187.60 493.75 183.99 C 493.56 179.47 494.09 174.90 493.50 170.40 C 493.00 167.95 489.99 168.13 488.07 168.01 C 473.05 167.96 458.02 168.04 442.99 167.98 C 440.56 167.98 438.08 168.00 435.74 168.73 M 672.73 168.75 C 671.82 170.34 671.72 172.19 671.73 173.97 C 671.75 196.66 671.74 219.35 671.73 242.03 C 671.71 243.82 671.82 245.67 672.78 247.24 C 676.41 248.28 680.27 247.54 684.00 247.74 C 687.74 247.56 691.58 248.24 695.25 247.27 C 696.17 245.68 696.29 243.83 696.28 242.03 C 696.25 229.97 696.26 217.90 696.25 205.84 C 700.06 209.93 700.92 216.16 705.32 219.73 C 708.83 220.95 713.15 221.11 716.59 219.59 C 720.83 215.66 722.13 209.57 725.64 205.05 C 725.39 217.70 725.58 230.36 725.52 243.02 C 725.47 244.83 725.80 247.70 728.20 247.65 C 734.73 247.83 741.27 247.80 747.80 247.67 C 750.18 247.69 750.56 244.84 750.49 243.02 C 750.47 219.68 750.48 196.33 750.48 172.98 C 750.50 171.15 750.19 168.34 747.82 168.30 C 742.56 167.66 737.25 168.14 731.97 167.98 C 729.32 168.09 725.92 167.68 724.29 170.27 C 720.28 176.75 717.01 183.68 713.14 190.24 C 712.40 191.83 709.62 191.61 708.96 190.03 C 705.24 183.70 702.05 177.06 698.21 170.80 C 696.46 167.38 692.18 168.08 689.00 167.98 C 683.59 168.27 678.03 167.33 672.73 168.75 Z" />
<path fill="#f1ec40" opacity="1.00" d=" M 286.23 101.22 C 286.82 101.82 286.82 101.82 286.23 101.22 Z" />
<path fill="#f1ec40" opacity="1.00" d=" M 150.45 188.66 C 154.28 187.75 158.39 187.72 162.21 188.69 C 164.52 189.29 166.01 191.58 165.73 193.93 C 165.71 203.61 165.82 213.30 165.68 222.97 C 165.78 225.22 164.06 227.31 161.83 227.64 C 158.07 228.26 154.11 228.38 150.38 227.50 C 147.58 226.80 146.88 223.55 146.99 221.06 C 147.03 212.02 146.94 202.98 147.04 193.94 C 146.87 191.64 148.15 189.28 150.45 188.66 Z" />
<path fill="#f1ec40" opacity="1.00" d=" M 536.39 188.52 C 540.45 187.75 544.85 187.65 548.77 189.14 C 550.89 190.23 551.09 192.83 551.02 194.93 C 550.94 204.29 551.08 213.66 550.96 223.02 C 551.15 225.74 548.53 227.74 546.01 227.87 C 542.30 228.12 538.36 228.48 534.82 227.14 C 532.43 226.09 532.48 223.21 532.50 221.01 C 532.59 211.67 532.44 202.33 532.56 192.99 C 532.34 190.73 534.25 188.86 536.39 188.52 Z" />
<path fill="#f1ec40" opacity="1.00" d=" M 617.45 188.65 C 621.09 187.78 624.96 187.77 628.63 188.51 C 631.16 188.95 633.05 191.35 632.73 193.94 C 632.71 203.62 632.84 213.31 632.66 222.98 C 632.74 225.54 630.48 227.65 628.01 227.81 C 624.48 228.19 620.83 228.37 617.38 227.49 C 615.00 226.89 613.80 224.36 614.01 222.06 C 614.00 212.69 613.96 203.31 614.03 193.94 C 613.83 191.64 615.17 189.28 617.45 188.65 Z" />
<path fill="#f1ec40" opacity="1.00" d=" M 266.25 341.20 C 266.85 341.79 266.85 341.79 266.25 341.20 Z" />
<path fill="#f1ec40" opacity="1.00" d=" M 166.22 361.21 C 166.82 361.81 166.82 361.81 166.22 361.21 Z" />
<path fill="#f1ec40" opacity="1.00" d=" M 406.23 401.22 C 406.82 401.82 406.82 401.82 406.23 401.22 Z" />
</g>
<g id="#000000ff">
<path fill="#000000" opacity="1.00" d=" M 86.25 41.25 C 86.79 41.80 86.79 41.80 86.25 41.25 Z" />
<path fill="#000000" opacity="1.00" d=" M 166.26 41.25 C 166.79 41.80 166.79 41.80 166.26 41.25 Z" />
<path fill="#000000" opacity="1.00" d=" M 346.25 41.26 C 346.80 41.79 346.80 41.79 346.25 41.26 Z" />
<path fill="#000000" opacity="1.00" d=" M 646.27 41.27 C 646.80 41.81 646.80 41.81 646.27 41.27 Z" />
<path fill="#000000" opacity="1.00" d=" M 726.26 41.25 C 726.79 41.79 726.79 41.79 726.26 41.25 Z" />
<path fill="#000000" opacity="1.00" d=" M 66.28 61.27 C 66.81 61.82 66.81 61.82 66.28 61.27 Z" />
<path fill="#000000" opacity="1.00" d=" M 186.25 61.25 C 186.79 61.79 186.79 61.79 186.25 61.25 Z" />
<path fill="#000000" opacity="1.00" d=" M 466.25 61.25 C 466.79 61.79 466.79 61.79 466.25 61.25 Z" />
<path fill="#000000" opacity="1.00" d=" M 746.26 61.25 C 746.78 61.79 746.78 61.79 746.26 61.25 Z" />
<path fill="#000000" opacity="1.00" d=" M 46.26 81.25 C 46.79 81.80 46.79 81.80 46.26 81.25 Z" />
<path fill="#000000" opacity="1.00" d=" M 226.26 81.25 C 226.79 81.79 226.79 81.79 226.26 81.25 Z" />
<path fill="#000000" opacity="1.00" d=" M 326.25 81.25 C 326.79 81.80 326.79 81.80 326.25 81.25 Z" />
<path fill="#000000" opacity="1.00" d=" M 486.26 81.25 C 486.78 81.80 486.78 81.80 486.26 81.25 Z" />
<path fill="#000000" opacity="1.00" d=" M 586.25 81.25 C 586.79 81.79 586.79 81.79 586.25 81.25 Z" />
<path fill="#000000" opacity="1.00" d=" M 766.26 81.26 C 766.79 81.79 766.79 81.79 766.26 81.26 Z" />
<path fill="#000000" opacity="1.00" d=" M 26.26 101.26 C 26.79 101.80 26.79 101.80 26.26 101.26 Z" />
<path fill="#000000" opacity="1.00" d=" M 786.25 121.25 C 786.78 121.79 786.78 121.79 786.25 121.25 Z" />
<path fill="#000000" opacity="1.00" d=" M 6.25 141.25 C 6.80 141.80 6.80 141.80 6.25 141.25 Z" />
<path fill="#000000" opacity="1.00" d=" M 807.00 141.69 C 807.00 141.61 807.00 141.46 807.00 141.38 L 807.00 141.69 Z" />
<path fill="#000000" opacity="1.00" d=" M 6.28 161.27 C 6.82 161.82 6.82 161.82 6.28 161.27 Z" />
<path fill="#000000" opacity="1.00" d=" M 807.00 161.63 C 807.00 161.57 807.00 161.45 807.00 161.39 L 807.00 161.63 Z" />
<path fill="#000000" opacity="1.00" d=" M 141.43 167.67 C 149.87 166.15 158.54 166.25 167.06 167.01 C 173.89 167.92 181.29 169.59 186.13 174.88 C 189.90 178.89 190.78 184.66 190.76 189.96 C 190.69 202.63 190.81 215.29 190.71 227.96 C 190.46 233.71 188.81 240.33 183.55 243.51 C 174.59 249.42 163.38 249.57 153.02 249.46 C 143.81 249.08 133.60 248.04 126.55 241.43 C 123.09 237.54 122.02 232.11 121.99 227.04 C 122.01 214.35 122.00 201.65 121.99 188.95 C 122.03 184.13 122.91 178.96 126.18 175.22 C 129.98 170.74 135.84 168.79 141.43 167.67 M 150.45 188.66 C 148.15 189.28 146.87 191.64 147.04 193.94 C 146.94 202.98 147.03 212.02 146.99 221.06 C 146.88 223.55 147.58 226.80 150.38 227.50 C 154.11 228.38 158.07 228.26 161.83 227.64 C 164.06 227.31 165.78 225.22 165.68 222.97 C 165.82 213.30 165.71 203.61 165.73 193.93 C 166.01 191.58 164.52 189.29 162.21 188.69 C 158.39 187.72 154.28 187.75 150.45 188.66 Z" />
<path fill="#000000" opacity="1.00" d=" M 527.38 167.55 C 534.15 166.33 541.09 166.39 547.95 166.64 C 555.54 167.15 563.63 168.33 569.78 173.19 C 574.18 176.71 575.97 182.48 575.99 187.94 C 576.00 201.32 576.01 214.70 575.99 228.07 C 575.91 233.99 573.86 240.37 568.62 243.69 C 559.95 249.41 549.04 249.50 539.01 249.48 C 529.76 249.17 519.46 248.24 512.31 241.69 C 506.88 236.55 507.51 228.57 506.92 221.75 C 507.45 214.93 507.46 208.04 506.91 201.21 C 508.00 193.43 505.84 184.97 509.77 177.75 C 513.33 171.44 520.62 168.77 527.38 167.55 M 536.39 188.52 C 534.25 188.86 532.34 190.73 532.56 192.99 C 532.44 202.33 532.59 211.67 532.50 221.01 C 532.48 223.21 532.43 226.09 534.82 227.14 C 538.36 228.48 542.30 228.12 546.01 227.87 C 548.53 227.74 551.15 225.74 550.96 223.02 C 551.08 213.66 550.94 204.29 551.02 194.93 C 551.09 192.83 550.89 190.23 548.77 189.14 C 544.85 187.65 540.45 187.75 536.39 188.52 Z" />
<path fill="#000000" opacity="1.00" d=" M 609.36 167.51 C 617.17 166.18 625.15 166.31 633.03 166.90 C 639.99 167.67 647.44 169.31 652.63 174.36 C 657.03 178.64 657.78 185.13 657.76 190.96 C 657.68 203.32 657.83 215.68 657.68 228.03 C 657.62 234.11 655.32 240.56 649.95 243.89 C 641.67 249.10 631.50 249.49 622.00 249.50 C 613.03 249.30 603.32 248.69 595.78 243.26 C 590.95 239.87 589.02 233.75 589.01 228.07 C 588.98 215.03 589.02 201.99 588.99 188.96 C 588.93 183.88 590.06 178.45 593.65 174.66 C 597.75 170.36 603.66 168.51 609.36 167.51 M 617.45 188.65 C 615.17 189.28 613.83 191.64 614.03 193.94 C 613.96 203.31 614.00 212.69 614.01 222.06 C 613.80 224.36 615.00 226.89 617.38 227.49 C 620.83 228.37 624.48 228.19 628.01 227.81 C 630.48 227.65 632.74 225.54 632.66 222.98 C 632.84 213.31 632.71 203.62 632.73 193.94 C 633.05 191.35 631.16 188.95 628.63 188.51 C 624.96 187.77 621.09 187.78 617.45 188.65 Z" />
<path fill="#000000" opacity="1.00" d=" M 65.44 170.42 C 76.19 166.66 87.84 168.46 99.00 167.99 C 102.81 168.34 107.30 167.01 110.61 169.40 C 111.84 173.80 111.07 178.49 111.28 183.01 C 111.08 185.14 111.71 188.70 108.85 189.24 C 100.40 189.90 91.88 189.15 83.40 189.57 C 81.03 189.71 78.20 191.32 78.32 194.01 C 78.19 203.33 78.26 212.65 78.29 221.97 C 78.06 224.72 80.70 226.48 83.18 226.59 C 91.72 227.13 100.32 226.29 108.86 226.98 C 111.94 227.73 111.03 231.64 111.28 233.99 C 111.00 238.40 112.06 243.10 110.24 247.27 C 108.23 247.90 106.10 247.75 104.03 247.77 C 95.03 247.68 86.03 247.80 77.04 247.72 C 70.74 247.47 64.00 246.19 59.17 241.84 C 54.47 237.68 52.89 231.07 52.99 225.01 C 53.09 212.64 52.84 200.26 53.11 187.90 C 53.36 180.32 58.03 172.81 65.44 170.42 Z" />
<path fill="#000000" opacity="1.00" d=" M 205.74 168.75 C 211.03 167.33 216.59 168.26 222.00 167.98 C 225.19 168.08 229.44 167.37 231.22 170.78 C 235.06 177.04 238.27 183.68 242.00 190.00 C 242.65 191.61 245.41 191.84 246.16 190.24 C 249.83 184.10 252.95 177.65 256.52 171.46 C 257.46 169.77 259.04 168.24 261.08 168.18 C 265.71 167.77 270.36 168.10 275.00 167.98 C 277.43 168.05 280.03 167.74 282.31 168.78 C 283.53 169.81 283.39 171.55 283.49 172.98 C 283.47 196.33 283.47 219.67 283.49 243.02 C 283.55 244.85 283.25 247.74 280.79 247.66 C 274.26 247.81 267.71 247.82 261.19 247.66 C 258.85 247.63 258.49 244.82 258.53 243.03 C 258.57 230.37 258.40 217.70 258.64 205.04 C 254.43 210.24 253.52 218.99 246.32 221.09 C 243.31 220.28 239.62 221.14 237.18 218.83 C 233.87 214.93 232.72 209.61 229.25 205.84 C 229.27 217.56 229.24 229.28 229.29 241.01 C 229.27 243.12 229.39 245.37 228.25 247.26 C 224.59 248.25 220.74 247.56 217.00 247.74 C 213.26 247.56 209.42 248.25 205.76 247.26 C 204.71 245.34 204.73 243.12 204.72 241.00 C 204.76 218.66 204.73 196.31 204.73 173.97 C 204.74 172.18 204.90 170.36 205.74 168.75 Z" />
<path fill="#000000" opacity="1.00" d=" M 297.34 170.30 C 297.98 167.89 300.98 168.17 302.92 168.01 C 317.64 168.01 332.37 167.95 347.09 168.04 C 349.53 167.79 352.55 169.05 352.18 171.99 C 352.04 177.47 353.06 183.22 351.47 188.52 C 347.24 190.88 341.80 188.22 337.64 190.05 C 337.33 200.70 337.65 211.37 337.49 222.02 C 337.63 223.57 337.16 225.33 338.04 226.72 C 341.97 226.94 345.94 226.41 349.85 226.97 C 352.93 227.72 352.06 231.64 352.28 233.99 C 351.92 238.38 353.18 243.13 351.24 247.24 C 349.24 247.94 347.10 247.74 345.03 247.77 C 330.06 247.66 315.10 247.85 300.14 247.68 C 297.13 247.92 296.95 244.22 296.99 242.07 C 297.21 237.29 296.35 232.35 297.71 227.70 C 302.16 225.78 307.16 227.17 311.85 226.75 C 312.04 214.31 312.24 201.82 311.75 189.39 C 307.56 189.29 303.31 189.91 299.16 189.14 C 296.90 188.58 297.13 185.88 297.00 184.08 C 297.09 179.49 296.66 174.85 297.34 170.30 Z" />
<path fill="#000000" opacity="1.00" d=" M 368.20 177.15 C 371.93 171.55 378.81 169.24 385.21 168.52 C 393.77 167.68 402.40 168.11 410.99 167.99 C 414.21 168.04 417.48 167.75 420.66 168.40 C 423.08 169.02 422.85 171.98 422.99 173.93 C 422.96 178.23 423.25 182.57 422.71 186.85 C 422.60 188.78 420.44 189.54 418.80 189.51 C 411.19 189.63 403.59 189.41 395.99 189.56 C 393.61 189.54 390.59 190.46 390.15 193.17 C 389.36 197.73 389.87 202.39 389.74 207.00 C 389.88 212.29 389.37 217.63 390.07 222.89 C 390.40 225.67 393.49 226.77 395.94 226.71 C 403.31 226.83 410.68 226.66 418.05 226.74 C 419.51 226.72 420.98 226.99 422.27 227.72 C 423.54 232.38 422.86 237.30 422.99 242.07 C 422.95 244.20 422.89 247.93 419.86 247.68 C 409.58 247.82 399.30 247.73 389.03 247.72 C 381.62 247.51 373.28 245.71 368.60 239.44 C 364.98 234.77 364.62 228.65 364.53 222.98 C 364.50 213.32 364.54 203.67 364.51 194.01 C 364.62 188.25 364.74 182.03 368.20 177.15 Z" />
<path fill="#000000" opacity="1.00" d=" M 435.74 168.73 C 438.08 168.00 440.56 167.98 442.99 167.98 C 458.02 168.04 473.05 167.96 488.07 168.01 C 489.99 168.13 493.00 167.95 493.50 170.40 C 494.09 174.90 493.56 179.47 493.75 183.99 C 493.69 187.60 494.33 191.76 491.68 194.68 C 483.00 205.50 474.00 216.07 465.19 226.80 C 474.14 226.74 483.10 226.66 492.04 226.80 C 494.10 226.55 495.73 228.10 495.65 230.16 C 495.76 235.30 495.97 240.49 495.54 245.61 C 495.15 247.76 492.73 247.77 491.03 247.76 C 473.02 247.72 455.02 247.75 437.01 247.74 C 435.62 247.72 433.44 247.57 433.16 245.85 C 432.42 241.95 432.82 237.95 432.72 234.01 C 432.82 230.29 432.34 226.04 434.97 223.01 C 442.74 213.45 450.60 203.96 458.45 194.47 C 459.69 192.86 461.35 191.43 461.87 189.39 C 453.64 189.35 445.35 189.86 437.15 189.18 C 433.79 188.20 435.05 183.64 434.71 181.00 C 434.92 176.92 434.11 172.60 435.74 168.73 Z" />
<path fill="#000000" opacity="1.00" d=" M 672.73 168.75 C 678.03 167.33 683.59 168.27 689.00 167.98 C 692.18 168.08 696.46 167.38 698.21 170.80 C 702.05 177.06 705.24 183.70 708.96 190.03 C 709.62 191.61 712.40 191.83 713.14 190.24 C 717.01 183.68 720.28 176.75 724.29 170.27 C 725.92 167.68 729.32 168.09 731.97 167.98 C 737.25 168.14 742.56 167.66 747.82 168.30 C 750.19 168.34 750.50 171.15 750.48 172.98 C 750.48 196.33 750.47 219.68 750.49 243.02 C 750.56 244.84 750.18 247.69 747.80 247.67 C 741.27 247.80 734.73 247.83 728.20 247.65 C 725.80 247.70 725.47 244.83 725.52 243.02 C 725.58 230.36 725.39 217.70 725.64 205.05 C 722.13 209.57 720.83 215.66 716.59 219.59 C 713.15 221.11 708.83 220.95 705.32 219.73 C 700.92 216.16 700.06 209.93 696.25 205.84 C 696.26 217.90 696.25 229.97 696.28 242.03 C 696.29 243.83 696.17 245.68 695.25 247.27 C 691.58 248.24 687.74 247.56 684.00 247.74 C 680.27 247.54 676.41 248.28 672.78 247.24 C 671.82 245.67 671.71 243.82 671.73 242.03 C 671.74 219.35 671.75 196.66 671.73 173.97 C 671.72 172.19 671.82 170.34 672.73 168.75 Z" />
<path fill="#000000" opacity="1.00" d=" M 807.00 181.63 C 807.00 181.57 807.00 181.45 807.00 181.39 L 807.00 181.63 Z" />
<path fill="#000000" opacity="1.00" d=" M 807.00 201.63 C 807.00 201.57 807.00 201.45 807.00 201.39 L 807.00 201.63 Z" />
<path fill="#000000" opacity="1.00" d=" M 807.00 221.63 C 807.00 221.57 807.00 221.45 807.00 221.39 L 807.00 221.63 Z" />
<path fill="#000000" opacity="1.00" d=" M 6.25 241.25 C 6.79 241.80 6.79 241.80 6.25 241.25 Z" />
<path fill="#000000" opacity="1.00" d=" M 807.00 241.63 C 807.00 241.57 807.00 241.44 807.00 241.38 L 807.00 241.63 Z" />
<path fill="#000000" opacity="1.00" d=" M 6.24 261.26 C 6.81 261.78 6.81 261.78 6.24 261.26 Z" />
<path fill="#000000" opacity="1.00" d=" M 807.00 261.60 C 807.00 261.54 807.00 261.42 807.00 261.36 L 807.00 261.60 Z" />
<path fill="#000000" opacity="1.00" d=" M 786.25 281.26 C 786.79 281.79 786.79 281.79 786.25 281.26 Z" />
<path fill="#000000" opacity="1.00" d=" M 26.26 301.26 C 26.79 301.79 26.79 301.79 26.26 301.26 Z" />
<path fill="#000000" opacity="1.00" d=" M 766.21 301.20 C 766.73 301.74 766.73 301.74 766.21 301.20 Z" />
<path fill="#000000" opacity="1.00" d=" M 46.25 321.26 C 46.80 321.80 46.80 321.80 46.25 321.26 Z" />
<path fill="#000000" opacity="1.00" d=" M 226.25 321.25 C 226.80 321.79 226.80 321.79 226.25 321.25 Z" />
<path fill="#000000" opacity="1.00" d=" M 586.24 321.19 C 586.82 321.67 586.82 321.67 586.24 321.19 Z" />
<path fill="#000000" opacity="1.00" d=" M 766.26 321.25 C 766.78 321.79 766.78 321.79 766.26 321.25 Z" />
<path fill="#000000" opacity="1.00" d=" M 66.25 341.25 C 66.79 341.79 66.79 341.79 66.25 341.25 Z" />
<path fill="#000000" opacity="1.00" d=" M 186.25 341.26 C 186.80 341.79 186.80 341.79 186.25 341.26 Z" />
<path fill="#000000" opacity="1.00" d=" M 306.28 341.13 C 306.76 341.72 306.76 341.72 306.28 341.13 Z" />
<path fill="#000000" opacity="1.00" d=" M 326.26 341.26 C 326.79 341.80 326.79 341.80 326.26 341.26 Z" />
<path fill="#000000" opacity="1.00" d=" M 346.25 341.26 C 346.79 341.79 346.79 341.79 346.25 341.26 Z" />
<path fill="#000000" opacity="1.00" d=" M 466.25 341.26 C 466.79 341.79 466.79 341.79 466.25 341.26 Z" />
<path fill="#000000" opacity="1.00" d=" M 486.26 341.25 C 486.78 341.80 486.78 341.80 486.26 341.25 Z" />
<path fill="#000000" opacity="1.00" d=" M 546.25 341.25 C 546.78 341.79 546.78 341.79 546.25 341.25 Z" />
<path fill="#000000" opacity="1.00" d=" M 606.26 341.26 C 606.78 341.80 606.78 341.80 606.26 341.26 Z" />
<path fill="#000000" opacity="1.00" d=" M 746.26 341.25 C 746.79 341.79 746.79 341.79 746.26 341.25 Z" />
<path fill="#000000" opacity="1.00" d=" M 86.25 361.26 C 86.79 361.79 86.79 361.79 86.25 361.26 Z" />
<path fill="#000000" opacity="1.00" d=" M 286.25 361.26 C 286.79 361.79 286.79 361.79 286.25 361.26 Z" />
<path fill="#000000" opacity="1.00" d=" M 366.25 361.26 C 366.79 361.79 366.79 361.79 366.25 361.26 Z" />
<path fill="#000000" opacity="1.00" d=" M 446.25 361.25 C 446.78 361.78 446.78 361.78 446.25 361.25 Z" />
<path fill="#000000" opacity="1.00" d=" M 526.25 361.26 C 526.78 361.79 526.78 361.79 526.25 361.26 Z" />
<path fill="#000000" opacity="1.00" d=" M 626.25 361.26 C 626.78 361.79 626.78 361.79 626.25 361.26 Z" />
<path fill="#000000" opacity="1.00" d=" M 706.29 361.13 C 706.75 361.73 706.75 361.73 706.29 361.13 Z" />
<path fill="#000000" opacity="1.00" d=" M 726.26 361.26 C 726.79 361.78 726.79 361.78 726.26 361.26 Z" />
<path fill="#000000" opacity="1.00" d=" M 126.27 381.24 C 126.82 381.77 126.82 381.77 126.27 381.24 Z" />
<path fill="#000000" opacity="1.00" d=" M 166.26 381.25 C 166.79 381.79 166.79 381.79 166.26 381.25 Z" />
<path fill="#000000" opacity="1.00" d=" M 386.26 381.26 C 386.80 381.79 386.80 381.79 386.26 381.26 Z" />
<path fill="#000000" opacity="1.00" d=" M 426.26 381.25 C 426.79 381.79 426.79 381.79 426.26 381.25 Z" />
<path fill="#000000" opacity="1.00" d=" M 686.25 381.25 C 686.79 381.79 686.79 381.79 686.25 381.25 Z" />
<path fill="#000000" opacity="1.00" d=" M 146.25 401.25 C 146.79 401.78 146.79 401.78 146.25 401.25 Z" />
</g>
</svg>
