<svg xmlns="http://www.w3.org/2000/svg" version="1.1" xmlns:xlink="http://www.w3.org/1999/xlink" xmlns:svgjs="http://svgjs.com/svgjs" width="1920" height="1080" preserveAspectRatio="none" viewBox="0 0 1920 1080"><g mask="url(&quot;#SvgjsMask1221&quot;)" fill="none"><rect width="1920" height="1080" x="0" y="0" fill="rgba(24, 24, 24, 1)"></rect><path d="M102 1080L1182 0L1896 0L816 1080z" fill="url(#SvgjsLinearGradient1222)"></path><path d="M650.6 1080L1730.6 0L2518.1 0L1438.1 1080z" fill="url(#SvgjsLinearGradient1222)"></path><path d="M1868 1080L788 0L620 0L1700 1080z" fill="url(#SvgjsLinearGradient1223)"></path><path d="M1254.4 1080L174.4000000000001 0L70.90000000000009 0L1150.9 1080z" fill="url(#SvgjsLinearGradient1223)"></path><path d="M867.8941919879837 1080L1920 27.89419198798373L1920 1080z" fill="url(#SvgjsLinearGradient1222)"></path><path d="M0 1080L1052.1058080120163 1080L 0 27.89419198798373z" fill="url(#SvgjsLinearGradient1223)"></path></g><defs><mask id="SvgjsMask1221"><rect width="1920" height="1080" fill="#ffffff"></rect></mask><linearGradient x1="0%" y1="100%" x2="100%" y2="0%" id="SvgjsLinearGradient1222"><stop stop-color="rgba(52, 149, 255, 0.2)" offset="0"></stop><stop stop-opacity="0" stop-color="rgba(52, 149, 255, 0.2)" offset="0.66"></stop></linearGradient><linearGradient x1="100%" y1="100%" x2="0%" y2="0%" id="SvgjsLinearGradient1223"><stop stop-color="rgba(52, 149, 255, 0.2)" offset="0"></stop><stop stop-opacity="0" stop-color="rgba(52, 149, 255, 0.2)" offset="0.66"></stop></linearGradient></defs></svg>